<svg viewBox="0 0 800 455" xmlns="http://www.w3.org/2000/svg"><path d="m150.8 35.9h-1.6v4.3h-1.5v-10.5h4c2 0 3.3 1.4 3.3 3.2 0 1.5-1 2.7-2.6 3l2.5 4.5h-1.7zm.7-1.3c1.2 0 2-.7 2-1.8s-.8-1.8-2-1.8h-2.2v3.6zm12.1 3.6c-.4 1.3-1.6 2.3-3.2 2.3-1.9 0-3.6-1.4-3.6-3.9 0-2.3 1.6-3.8 3.5-3.8 2.2 0 3.5 1.5 3.5 3.8v.5h-5.4c0 1.3 1 2.2 2.2 2.2s1.8-.6 2-1.5zm-1.4-2.3c0-1-.7-1.8-2-1.8-1.2 0-1.9.9-2 1.8zm4 4.4v-10.9h1.4v10.9zm10.8-2.1c-.4 1.3-1.6 2.3-3.2 2.3-1.9 0-3.6-1.4-3.6-3.9 0-2.3 1.6-3.8 3.4-3.8 2.2 0 3.5 1.5 3.5 3.8v.5h-5.4c0 1.3 1 2.2 2.2 2.2s1.8-.6 2-1.5zm-1.4-2.3c0-1-.7-1.8-2-1.8-1.2 0-1.9.9-2 1.8zm5.8.3 1.9-.3c.4-.1.6-.3.6-.5 0-.7-.5-1.3-1.6-1.3-1 0-1.5.6-1.6 1.5l-1.4-.3c.2-1.4 1.4-2.3 3-2.3 2.2 0 3 1.2 3 2.6v3.6c0 .6.1 1 .1 1.2h-1.4c0-.2-.1-.5-.1-1-.3.5-1 1.2-2.3 1.2-1.5 0-2.4-1-2.4-2.2 0-1.3.9-2.1 2.2-2.2zm2.5 1v-.3l-2.2.3c-.6.1-1 .4-1 1.1 0 .5.4 1 1.2 1 1 0 2-.5 2-2.1zm4.9.8c.1.8.7 1.3 1.7 1.3.8 0 1.2-.4 1.2-1 0-.4-.3-.8-.9-.9l-1.2-.3c-1.1-.2-1.8-1-1.8-2 0-1.2 1.2-2.3 2.6-2.3 2 0 2.6 1.3 2.7 1.9l-1.2.5c-.1-.4-.4-1.2-1.5-1.2-.7 0-1.2.5-1.2 1 0 .4.3.8.8.9l1.2.3c1.3.3 2 1.1 2 2.1s-.9 2.2-2.6 2.2c-2 0-2.8-1.3-2.9-2.1zm13.2.2c-.4 1.3-1.6 2.3-3.2 2.3-1.9 0-3.6-1.4-3.6-3.9 0-2.3 1.6-3.8 3.5-3.8 2.2 0 3.5 1.5 3.5 3.8v.5h-5.4c0 1.3 1 2.2 2.2 2.2s1.8-.6 2-1.5zm-1.5-2.3c0-1-.7-1.8-2-1.8-1.2 0-1.9.9-2 1.8z" fill="#404040"/><path d="m145.5 9.3h96.2v50h-96.2z" style="fill:#b18be8;stroke:#404040;stroke-width:4;stroke-linecap:round;stroke-linejoin:round;stroke-miterlimit:10"/><path d="m165.8 40.3v-10.6h3.7c2.7 0 5.1 1.8 5.1 5.3s-2.4 5.3-5.1 5.3zm3.7-1.3c2 0 3.6-1.3 3.6-4s-1.6-4-3.6-4h-2.2v8zm14-.8c-.4 1.3-1.6 2.3-3.2 2.3-1.9 0-3.6-1.4-3.6-3.9 0-2.3 1.6-3.8 3.5-3.8 2.2 0 3.5 1.5 3.5 3.8v.5h-5.4c0 1.3 1 2.2 2.2 2.2s1.8-.6 2-1.5zm-1.4-2.3c0-1-.7-1.8-2-1.8-1.2 0-1.9.9-2 1.8zm7.5 4.4h-1.4l-2.9-7.2h1.6l2.1 5.6 2.1-5.6h1.5zm10.7-2.1c-.4 1.3-1.6 2.3-3.2 2.3-1.9 0-3.6-1.4-3.6-3.9 0-2.3 1.6-3.8 3.5-3.8 2.2 0 3.5 1.5 3.5 3.8v.5h-5.4c0 1.3 1 2.2 2.2 2.2s1.8-.6 2-1.5zm-1.4-2.3c0-1-.7-1.8-2-1.8-1.2 0-1.9.9-2 1.8zm4 4.4v-10.9h1.4v10.9zm11.3-3.6c0 2.2-1.5 3.8-3.7 3.8s-3.7-1.6-3.7-3.8 1.5-3.8 3.7-3.8 3.7 1.6 3.7 3.8zm-1.4 0c0-1.7-1-2.6-2.2-2.6s-2.2.9-2.2 2.6 1 2.6 2.2 2.6 2.2-.9 2.2-2.6zm4 6.4v-10h1.4v1.1c.4-.7 1.2-1.3 2.4-1.3 2.2 0 3.3 1.7 3.3 3.8s-1.2 3.8-3.4 3.8c-1.1 0-2-.5-2.3-1.2v3.8zm3.5-8.9c-1.3 0-2.1 1.1-2.1 2.5 0 1.5.9 2.5 2.1 2.5 1.3 0 2.1-1.1 2.1-2.5 0-1.5-.8-2.5-2.1-2.5z" fill="#404040"/><path d="m7 9.3h96.2v50h-96.2z" style="fill:#b3e3ff;stroke:#404040;stroke-width:4;stroke-linecap:round;stroke-linejoin:round;stroke-miterlimit:10"/><path d="m41.7 40.3v-8.3l-3.7 8.3h-1.3l-3.6-8.3v8.3h-1.5v-10.6h2l3.7 8.7 3.8-8.7h2v10.6zm6.4-4.1 2-.3c.4-.1.6-.3.6-.5 0-.7-.5-1.3-1.6-1.3-1 0-1.5.6-1.6 1.5l-1.5-.4c.2-1.4 1.4-2.3 3-2.3 2.2 0 3 1.2 3 2.6v3.6c0 .6.1 1 .1 1.2h-1.4c0-.2-.1-.5-.1-1-.3.5-1 1.2-2.3 1.2-1.5 0-2.4-1-2.4-2.2s.9-2 2.2-2.1zm2.5 1v-.3l-2.2.3c-.6.1-1 .4-1 1.1 0 .5.5 1 1.2 1 1.1 0 2-.5 2-2.1zm4.9.8c.1.8.7 1.3 1.7 1.3.8 0 1.2-.4 1.2-1 0-.4-.3-.8-.9-.9l-1.2-.3c-1.1-.2-1.8-1-1.8-2 0-1.2 1.2-2.3 2.6-2.3 2 0 2.6 1.3 2.7 1.9l-1.2.5c-.1-.4-.4-1.2-1.5-1.2-.7 0-1.2.5-1.2 1 0 .4.3.8.8.9l1.2.3c1.3.3 2 1.1 2 2.1s-.9 2.2-2.6 2.2c-2 0-2.8-1.3-2.9-2.1zm8.9-4.9h1.6v1.3h-1.6v3.8c0 .7.3 1 1 1 .2 0 .4 0 .6-.1v1.2c-.1 0-.5.1-1 .1-1.2 0-2-.8-2-2.1v-4h-1.4v-1.3h.4c.8 0 1.1-.5 1.1-1.1v-1.2h1.3zm10.3 5.1c-.4 1.3-1.6 2.3-3.2 2.3-1.9 0-3.6-1.4-3.6-3.9 0-2.3 1.6-3.8 3.5-3.8 2.2 0 3.5 1.5 3.5 3.8v.5h-5.4c0 1.3 1 2.2 2.2 2.2s1.8-.6 2-1.5zm-1.4-2.3c0-1-.7-1.8-2-1.8-1.2 0-1.9.9-2 1.8zm8-1.4h-.6c-1.2 0-2 .6-2 2.2v3.6h-1.4v-7.2h1.4v1.3c.5-1.1 1.4-1.4 2.2-1.4h.5v1.5z" fill="#404040"/><path d="m283.3 9.3h96.2v50h-96.2z" style="fill:#4ed1a1;stroke:#404040;stroke-width:4;stroke-linecap:round;stroke-linejoin:round;stroke-miterlimit:10"/><path d="m305.9 39.8v-10.6h6.5v1.4h-5v3.4h4.5v1.4h-4.5v4.5h-1.5zm14.6-2.1c-.4 1.3-1.6 2.3-3.2 2.3-1.9 0-3.6-1.4-3.6-3.9 0-2.3 1.6-3.8 3.4-3.8 2.2 0 3.5 1.5 3.5 3.8v.5h-5.4c0 1.3 1 2.2 2.2 2.2s1.8-.6 2-1.5zm-1.4-2.3c0-1-.7-1.8-2-1.8-1.2 0-1.9.9-2 1.8zm5.8.3 2-.3c.4-.1.6-.3.6-.5 0-.7-.5-1.3-1.6-1.3-1 0-1.5.6-1.6 1.5l-1.4-.3c.2-1.4 1.4-2.3 3-2.3 2.2 0 3 1.2 3 2.6v3.6c0 .6.1 1 .1 1.2h-1.4c0-.2-.1-.5-.1-1-.3.5-1 1.2-2.3 1.2-1.5 0-2.4-1-2.4-2.2-.1-1.3.8-2.1 2.1-2.2zm2.5 1v-.3l-2.2.3c-.6.1-1 .4-1 1.1 0 .5.5 1 1.2 1 1 0 2-.5 2-2.1zm6.2-4.1h1.6v1.3h-1.6v3.8c0 .7.3 1 1 1 .2 0 .4 0 .6-.1v1.2c-.1 0-.5.1-1 .1-1.2 0-2-.8-2-2.1v-4h-1.4v-1.3h.4c.8 0 1.1-.5 1.1-1.1v-1.2h1.3zm6.8 7.4c-1.7 0-2.7-1.3-2.7-2.9v-4.5h1.4v4.3c0 1 .5 1.9 1.6 1.9s1.7-.8 1.7-1.8v-4.3h1.4v5.9c0 .6 0 1.1.1 1.3h-1.3c0-.2-.1-.6-.1-.9-.3.7-1.2 1-2.1 1zm10.6-6h-.6c-1.2 0-2 .6-2 2.2v3.6h-1.4v-7.2h1.4v1.3c.5-1.1 1.4-1.4 2.2-1.4h.5v1.5zm8.5 3.7c-.4 1.3-1.6 2.3-3.2 2.3-1.9 0-3.6-1.4-3.6-3.9 0-2.3 1.6-3.8 3.5-3.8 2.2 0 3.5 1.5 3.5 3.8v.5h-5.4c0 1.3 1 2.2 2.2 2.2s1.8-.6 2-1.5zm-1.4-2.3c0-1-.7-1.8-2-1.8-1.2 0-1.9.9-2 1.8z" fill="#404040"/><path d="m420.9 9.3h96.2v50h-96.2z" style="fill:#4ed1a1;stroke:#404040;stroke-width:4;stroke-linecap:round;stroke-linejoin:round;stroke-miterlimit:10"/><path d="m443.4 39.8v-10.6h6.5v1.4h-5v3.4h4.5v1.4h-4.5v4.5h-1.5zm14.6-2.1c-.4 1.3-1.6 2.3-3.2 2.3-1.9 0-3.6-1.4-3.6-3.9 0-2.3 1.6-3.8 3.5-3.8 2.2 0 3.5 1.5 3.5 3.8v.5h-5.4c0 1.3 1 2.2 2.2 2.2s1.8-.6 2-1.5zm-1.4-2.3c0-1-.7-1.8-2-1.8-1.2 0-1.9.9-2 1.8zm5.8.3 2-.3c.4-.1.6-.3.6-.5 0-.7-.5-1.3-1.6-1.3-1 0-1.5.6-1.6 1.5l-1.4-.3c.2-1.4 1.4-2.3 3-2.3 2.2 0 3 1.2 3 2.6v3.6c0 .6.1 1 .1 1.2h-1.5c0-.2-.1-.5-.1-1-.3.5-1 1.2-2.3 1.2-1.5 0-2.4-1-2.4-2.2 0-1.3.9-2.1 2.2-2.2zm2.5 1v-.3l-2.2.3c-.6.1-1.1.4-1.1 1.1 0 .5.5 1 1.2 1 1.1 0 2.1-.5 2.1-2.1zm6.2-4.1h1.6v1.3h-1.6v3.8c0 .7.3 1 1 1 .2 0 .4 0 .6-.1v1.2c-.1 0-.5.1-1 .1-1.2 0-2-.8-2-2.1v-4h-1.4v-1.3h.4c.8 0 1.1-.5 1.1-1.1v-1.2h1.3zm6.8 7.4c-1.7 0-2.7-1.3-2.7-2.9v-4.5h1.4v4.3c0 1 .4 1.9 1.6 1.9 1.1 0 1.7-.8 1.7-1.8v-4.3h1.4v5.9c0 .6 0 1.1.1 1.3h-1.3c0-.2-.1-.6-.1-.9-.3.7-1.2 1-2.1 1zm10.6-6h-.6c-1.2 0-2 .6-2 2.2v3.6h-1.4v-7.2h1.4v1.3c.5-1.1 1.4-1.4 2.2-1.4h.5v1.5zm8.5 3.7c-.4 1.3-1.6 2.3-3.2 2.3-1.9 0-3.6-1.4-3.6-3.9 0-2.3 1.6-3.8 3.4-3.8 2.2 0 3.5 1.5 3.5 3.8v.5h-5.4c0 1.3 1 2.2 2.2 2.2s1.8-.6 2-1.5zm-1.4-2.3c0-1-.7-1.8-2-1.8-1.2 0-1.9.9-2 1.8z" fill="#404040"/><g stroke-width="4"><path d="m424.2 340.2c0-17 13.8-30.8 30.8-30.8" fill="none" stroke="#404040" stroke-miterlimit="10"/><path d="m253.9 340.2c0-17-13.8-30.8-30.8-30.8m-58.8 123.1h213.9" fill="none" stroke="#404040" stroke-miterlimit="10"/><circle cx="315.6" cy="432.5" fill="#4ed1a1" r="15.8" stroke="#404040" stroke-miterlimit="10"/><circle cx="362.5" cy="432.5" fill="#4ed1a1" r="15.8" stroke="#404040" stroke-miterlimit="10"/><circle cx="242.2" cy="432.5" fill="#4ed1a1" r="15.8" stroke="#404040" stroke-miterlimit="10"/><path d="m776 309.5h-596.4" fill="none" stroke="#404040" stroke-miterlimit="10"/><circle cx="485" cy="309.5" fill="#b18be8" r="15.8" stroke="#404040" stroke-miterlimit="10"/><circle cx="315.6" cy="309.5" fill="#b18be8" r="15.8" stroke="#404040" stroke-miterlimit="10"/><circle cx="776" cy="309.5" fill="#b18be8" r="15.8" stroke="#404040" stroke-miterlimit="10"/><path d="m253.9 340.2c0 17 13.8 30.8 30.8 30.8h107.9" fill="none" stroke="#404040" stroke-miterlimit="10"/><circle cx="315.6" cy="371" fill="#4ed1a1" r="15.8" stroke="#404040" stroke-miterlimit="10"/><circle cx="362.5" cy="371" fill="#4ed1a1" r="15.8" stroke="#404040" stroke-miterlimit="10"/><path d="m392.6 371h.9c17 0 30.7-13.8 30.7-30.8" fill="none" stroke="#404040" stroke-miterlimit="10"/><path d="m70.6 309.5h-49.5" fill="none" stroke="#ccc" stroke-dasharray="0 14.1243" stroke-linecap="round" stroke-linejoin="round"/><path d="m761.1 248h-82.3" fill="none" stroke="#ccc" stroke-dasharray="0 14.9632" stroke-linecap="round" stroke-linejoin="round"/><path d="m84.7 278.7c0-17-13.8-30.8-30.8-30.8m30.8 30.8" fill="none" stroke="#404040" stroke-miterlimit="10"/><circle cx="148.5" cy="432.5" fill="#4ed1a1" r="15.8" stroke="#404040" stroke-miterlimit="10"/><path d="m644.8 248h-605.8" fill="none" stroke="#404040" stroke-miterlimit="10"/><circle cx="23.2" cy="248" fill="#b3e3ff" r="15.8" stroke="#404040" stroke-miterlimit="10"/><circle cx="315.6" cy="248" fill="#b3e3ff" r="15.8" stroke="#404040" stroke-miterlimit="10"/><circle cx="644.8" cy="248" fill="#b3e3ff" r="15.8" stroke="#404040" stroke-miterlimit="10"/><path d="m48.8 142.5h42.5v37.5h-42.5z" fill="#b3e3ff" stroke="#404040" stroke-linecap="round" stroke-linejoin="round" stroke-miterlimit="10"/></g><path d="m62.4 165.7h-1.2l-2.5-6.3h1.3l1.8 4.8 1.8-4.8h1.3zm4.6-7.2c.5-.8 1.4-1.4 2.6-1.4s2 .5 2.6 1.4c.6.8.8 1.9.8 3.1s-.2 2.2-.8 3.1c-.5.8-1.4 1.4-2.6 1.4s-2-.5-2.6-1.4c-.6-.8-.8-1.9-.8-3.1s.3-2.3.8-3.1zm1.3 5.7c.3.3.7.5 1.3.5s1-.2 1.3-.5c.5-.5.7-1.4.7-2.7s-.2-2.2-.7-2.7c-.3-.3-.7-.5-1.3-.5s-1 .2-1.3.5c-.5.5-.7 1.4-.7 2.7s.2 2.2.7 2.7zm7.3-.2c.5 0 .9.4.9.9s-.4.9-.9.9-.9-.4-.9-.9.3-.9.9-.9zm3.9 1.7v-5.9h-2v-.9c1.2 0 2-.7 2.2-1.6h1.1v8.4z" fill="#404040"/><path d="m70.1 214.1v-17.6m8.1 11.1-8.1 8.1-8.2-8.1" style="fill:none;stroke:#404040;stroke-width:4;stroke-linecap:round;stroke-linejoin:round;stroke-miterlimit:10"/><path d="m294.3 142.5h42.5v37.5h-42.5z" style="fill:#b3e3ff;stroke:#404040;stroke-width:4;stroke-linecap:round;stroke-linejoin:round;stroke-miterlimit:10"/><path d="m306.3 165.7h-1.3l-2.5-6.3h1.4l1.8 4.8 1.8-4.8h1.3zm4.6-7.2c.5-.8 1.4-1.4 2.6-1.4s2 .5 2.6 1.4c.6.8.8 1.9.8 3.1s-.2 2.2-.8 3.1c-.5.8-1.4 1.4-2.6 1.4s-2-.5-2.6-1.4c-.6-.8-.8-1.9-.8-3.1s.3-2.3.8-3.1zm1.3 5.7c.3.3.7.5 1.3.5s1-.2 1.3-.5c.5-.5.7-1.4.7-2.7s-.2-2.2-.7-2.7c-.3-.3-.7-.5-1.3-.5s-1 .2-1.3.5c-.5.5-.7 1.4-.7 2.7s.2 2.2.7 2.7zm7.3-.2c.5 0 .9.4.9.9s-.4.9-.9.9-.9-.4-.9-.9.4-.9.9-.9zm3-3.8v-.3c0-1.4 1.1-2.7 2.9-2.7s2.8 1.2 2.8 2.6c0 1.1-.6 2-1.6 2.6l-1.7 1.1c-.5.3-.9.7-1 1.2h4.3v1.2h-5.9c0-1.4.6-2.4 2-3.4l1.4-.9c.8-.5 1.2-1.1 1.2-1.8 0-.8-.5-1.5-1.6-1.5s-1.6.8-1.6 1.7v.4z" fill="#404040"/><path d="m315.6 214.1v-17.6m8.1 11.1-8.1 8.1-8.2-8.1" style="fill:none;stroke:#404040;stroke-width:4;stroke-linecap:round;stroke-linejoin:round;stroke-miterlimit:10"/><path d="m623.5 142.5h42.5v37.5h-42.5z" style="fill:#b3e3ff;stroke:#404040;stroke-width:4;stroke-linecap:round;stroke-linejoin:round;stroke-miterlimit:10"/><path d="m636.6 165.7h-1.2l-2.5-6.3h1.4l1.8 4.8 1.8-4.8h1.3zm5.6 0v-5.9h-2v-.9c1.2 0 2-.7 2.2-1.6h1.1v8.4zm4.6-1.7c.5 0 .9.4.9.9s-.4.9-.9.9-.9-.4-.9-.9.4-.9.9-.9zm3.6-5.5c.5-.8 1.4-1.4 2.6-1.4s2 .5 2.6 1.4c.6.8.8 1.9.8 3.1s-.2 2.2-.8 3.1c-.5.8-1.4 1.4-2.6 1.4s-2-.5-2.6-1.4c-.6-.8-.8-1.9-.8-3.1s.2-2.3.8-3.1zm1.2 5.7c.3.3.7.5 1.3.5s1-.2 1.3-.5c.5-.5.7-1.4.7-2.7s-.2-2.2-.7-2.7c-.3-.3-.7-.5-1.3-.5s-1 .2-1.3.5c-.5.5-.7 1.4-.7 2.7s.2 2.2.7 2.7z" fill="#404040"/><path d="m644.8 214.1v-17.6m8.2 11.1-8.2 8.1-8.1-8.1" style="fill:none;stroke:#404040;stroke-width:4;stroke-linecap:round;stroke-linejoin:round;stroke-miterlimit:10"/><path d="m246.7 371h-225.8" style="fill:none;stroke:#ccc;stroke-width:4;stroke-linecap:round;stroke-linejoin:round;stroke-dasharray:0 13.6844"/><path d="m762.2 371h-337.4" style="fill:none;stroke:#ccc;stroke-width:4;stroke-linecap:round;stroke-linejoin:round;stroke-dasharray:0 13.7717"/><path d="m109.6 432.5h-88.7" style="fill:none;stroke:#ccc;stroke-width:4;stroke-linecap:round;stroke-linejoin:round;stroke-dasharray:0 13.6492"/><path d="m762.1 432.5h-368.5" style="fill:none;stroke:#ccc;stroke-width:4;stroke-linecap:round;stroke-linejoin:round;stroke-dasharray:0 13.907"/><path d="m84.7 278.7c0 17 13.8 30.8 30.8 30.8h95.7" fill="none" stroke="#404040" stroke-miterlimit="10" stroke-width="4"/><circle cx="195.4" cy="309.5" fill="#b18be8" r="15.7" stroke="#404040" stroke-miterlimit="10" stroke-width="4"/><circle cx="148.5" cy="309.5" fill="#b18be8" r="15.8" stroke="#404040" stroke-miterlimit="10" stroke-width="4"/><path d="m148.5 325.2v91.5" fill="none" stroke="#404040" stroke-miterlimit="10" stroke-width="4"/></svg>